<svg width="801" height="801" viewBox="0 0 801 801" fill="none" xmlns="http://www.w3.org/2000/svg">
<g filter="url(#filter0_ii_0_1)">
<rect x="0.625488" y="0.648926" width="800" height="800" rx="182.318" fill="url(#paint0_linear_0_1)"/>
</g>
<g filter="url(#filter1_ii_0_1)">
<rect x="21.2017" y="21.2251" width="758.847" height="758.847" rx="172.939" fill="url(#paint1_linear_0_1)"/>
</g>
<rect x="42.2739" y="177.16" width="717.942" height="448.218" rx="29.7257" fill="url(#paint2_linear_0_1)"/>
<g filter="url(#filter2_i_0_1)">
<path fill-rule="evenodd" clip-rule="evenodd" d="M71.9997 177.16C55.5826 177.16 42.2739 190.469 42.2739 206.886V216.802C42.2739 200.384 55.5826 187.076 71.9997 187.076H730.491C746.908 187.076 760.216 200.384 760.216 216.801V206.886C760.216 190.469 746.908 177.16 730.491 177.16H71.9997Z" fill="url(#paint3_linear_0_1)"/>
</g>
<g filter="url(#filter3_i_0_1)">
<path fill-rule="evenodd" clip-rule="evenodd" d="M71.9997 625.378C55.5826 625.378 42.2739 612.069 42.2739 595.652V585.736C42.2739 602.153 55.5826 615.461 71.9997 615.461H730.491C746.908 615.461 760.216 602.153 760.216 585.736V595.652C760.216 612.069 746.908 625.378 730.491 625.378H71.9997Z" fill="url(#paint4_linear_0_1)"/>
</g>
<g filter="url(#filter4_i_0_1)">
<path fill-rule="evenodd" clip-rule="evenodd" d="M52.1904 461.425V584.89C52.1904 597.985 62.8067 608.602 75.9025 608.602H364.643C377.738 608.602 388.355 597.985 388.355 584.89V461.425C387.193 462.096 385.844 462.481 384.406 462.481H370.55C366.185 462.481 362.646 458.942 362.646 454.577V412.211C362.646 407.846 359.108 404.307 354.742 404.307H85.8022C81.4369 404.307 77.8981 407.846 77.8981 412.211V454.577C77.8981 458.942 74.3594 462.481 69.9941 462.481H56.1389C54.7007 462.481 53.3522 462.096 52.1904 461.425Z" fill="url(#paint5_linear_0_1)"/>
</g>
<g filter="url(#filter5_i_0_1)">
<path fill-rule="evenodd" clip-rule="evenodd" d="M52.1904 340.201V216.739C52.1904 203.643 62.8067 193.027 75.9025 193.027H364.643C377.738 193.027 388.355 203.643 388.355 216.739V340.201C387.193 339.529 385.845 339.145 384.407 339.145H370.551C366.186 339.145 362.647 342.684 362.647 347.049V389.414C362.647 393.78 359.109 397.318 354.743 397.318H85.8026C81.4374 397.318 77.8986 393.78 77.8986 389.414V347.05C77.8986 342.684 74.3599 339.146 69.9946 339.146H56.1394C54.701 339.146 53.3523 339.53 52.1904 340.201Z" fill="url(#paint6_linear_0_1)"/>
</g>
<g filter="url(#filter6_i_0_1)">
<path fill-rule="evenodd" clip-rule="evenodd" d="M414.136 462.336V585.8C414.136 598.896 424.752 609.512 437.848 609.512H726.588C739.684 609.512 750.3 598.896 750.3 585.8V462.338C749.139 463.009 747.791 463.392 746.354 463.392H732.498C728.133 463.392 724.594 459.854 724.594 455.488V413.123C724.594 408.758 721.056 405.219 716.69 405.219H447.749C443.384 405.219 439.845 408.758 439.845 413.123V455.488C439.845 459.854 436.306 463.392 431.941 463.392H418.086C416.647 463.392 415.298 463.008 414.136 462.336Z" fill="url(#paint7_linear_0_1)"/>
</g>
<g filter="url(#filter7_i_0_1)">
<path fill-rule="evenodd" clip-rule="evenodd" d="M414.136 340.204V216.739C414.136 203.644 424.752 193.027 437.848 193.027H726.588C739.684 193.027 750.3 203.643 750.3 216.739V340.201C749.139 339.531 747.791 339.147 746.354 339.147H732.499C728.133 339.147 724.595 342.686 724.595 347.051V389.416C724.595 393.782 721.056 397.32 716.69 397.32H447.749C443.384 397.32 439.845 393.782 439.845 389.416V347.051C439.845 342.686 436.306 339.147 431.941 339.147H418.086C416.647 339.147 415.298 339.532 414.136 340.204Z" fill="url(#paint8_linear_0_1)"/>
</g>
<g filter="url(#filter8_f_0_1)">
<path d="M62.1064 395.319H742.367V409.202H62.1064V395.319Z" fill="#161618"/>
</g>
<rect x="54.1733" y="343.754" width="19.8327" height="115.029" rx="3.96343" fill="#000100"/>
<rect x="417.111" y="343.754" width="19.8327" height="115.029" rx="3.96343" fill="#000100"/>
<rect x="365.546" y="343.754" width="19.8327" height="115.029" rx="3.96343" fill="#000100"/>
<rect x="728.484" y="343.754" width="19.8327" height="115.029" rx="3.96343" fill="#000100"/>
<rect x="56.1567" y="345.737" width="15.8661" height="55.5315" rx="1.98172" fill="url(#paint9_linear_0_1)"/>
<rect x="367.529" y="345.737" width="15.8661" height="55.5315" rx="1.98172" fill="url(#paint10_linear_0_1)"/>
<rect x="419.095" y="345.737" width="15.8661" height="55.5315" rx="1.98172" fill="url(#paint11_linear_0_1)"/>
<rect x="730.467" y="345.737" width="15.8661" height="55.5315" rx="1.98172" fill="url(#paint12_linear_0_1)"/>
<rect x="56.1567" y="405.235" width="15.8661" height="51.5649" rx="1.98172" fill="url(#paint13_linear_0_1)"/>
<rect x="367.529" y="405.235" width="15.8661" height="51.5649" rx="1.98172" fill="url(#paint14_linear_0_1)"/>
<rect x="419.095" y="405.235" width="15.8661" height="51.5649" rx="1.98172" fill="url(#paint15_linear_0_1)"/>
<rect x="730.467" y="405.235" width="15.8661" height="51.5649" rx="1.98172" fill="url(#paint16_linear_0_1)"/>
<g filter="url(#filter9_di_0_1)">
<path d="M302.618 760.567C301.67 760.567 300.813 760.252 300.046 759.62C299.279 758.943 298.895 758.018 298.895 756.845V737.014C298.895 735.977 299.234 735.142 299.91 734.51C300.632 733.833 301.467 733.495 302.415 733.495H308.777C310.897 733.495 312.77 734.082 314.394 735.255C316.019 736.383 316.831 738.007 316.831 740.128C316.831 741.256 316.583 742.316 316.086 743.309C315.635 744.256 315.026 744.978 314.259 745.474C315.567 745.926 316.605 746.76 317.372 747.979C318.139 749.152 318.523 750.551 318.523 752.175C318.523 754.882 317.711 756.958 316.086 758.402C314.462 759.845 312.431 760.567 309.995 760.567H302.618ZM305.257 756.439H309.995C311.439 756.439 312.477 756.01 313.108 755.153C313.785 754.25 314.124 753.28 314.124 752.243C314.124 751.295 313.808 750.393 313.176 749.535C312.544 748.678 311.574 748.249 310.266 748.249H304.987C303.994 748.249 303.498 748.768 303.498 749.806V754.679C303.498 755.852 304.084 756.439 305.257 756.439ZM304.987 744.459H308.912C310.04 744.459 310.897 744.076 311.484 743.309C312.071 742.542 312.364 741.729 312.364 740.872C312.364 740.06 312.071 739.316 311.484 738.639C310.943 737.917 310.085 737.556 308.912 737.556H305.325C304.107 737.556 303.498 738.142 303.498 739.316V742.903C303.498 743.94 303.994 744.459 304.987 744.459ZM320.915 742.903C320.915 742.181 321.164 741.617 321.66 741.211C322.156 740.804 322.698 740.601 323.284 740.601C324.232 740.601 324.909 741.075 325.315 742.023L330.594 754.95C330.729 755.311 330.977 755.491 331.338 755.491C331.699 755.491 331.947 755.333 332.083 755.018L336.617 742.09C336.978 741.098 337.678 740.601 338.716 740.601C339.347 740.601 339.911 740.804 340.408 741.211C340.949 741.617 341.22 742.113 341.22 742.7C341.22 742.925 341.152 743.241 341.017 743.647L330.662 768.892C330.301 769.885 329.601 770.381 328.563 770.381C327.977 770.381 327.413 770.178 326.871 769.772C326.375 769.366 326.127 768.87 326.127 768.283C326.127 767.832 326.195 767.516 326.33 767.335L329.646 760.567C328.699 760.477 328.044 760.026 327.684 759.214L321.051 743.715C320.961 743.354 320.915 743.083 320.915 742.903ZM359.054 761.244C358.468 761.244 357.949 761.041 357.498 760.635C357.046 760.229 356.821 759.688 356.821 759.011C356.821 758.785 356.866 758.492 356.956 758.131L365.416 735.187C365.732 734.42 366.206 733.833 366.838 733.427C367.469 733.021 368.146 732.818 368.868 732.818C369.59 732.818 370.267 733.021 370.898 733.427C371.575 733.833 372.072 734.42 372.387 735.187L381.389 758.131C381.479 758.492 381.524 758.785 381.524 759.011C381.524 759.688 381.299 760.229 380.848 760.635C380.396 761.041 379.877 761.244 379.291 761.244C378.885 761.244 378.456 761.131 378.005 760.906C377.599 760.725 377.283 760.409 377.057 759.958L374.824 754.002C374.779 753.732 374.598 753.596 374.283 753.596H363.927C363.611 753.596 363.408 753.732 363.318 754.002L361.288 759.958C361.062 760.409 360.724 760.725 360.273 760.906C359.866 761.131 359.46 761.244 359.054 761.244ZM365.958 749.535H372.049C372.32 749.535 372.523 749.445 372.658 749.265C372.839 749.039 372.884 748.768 372.794 748.452L369.545 739.18C369.409 738.729 369.206 738.503 368.936 738.503C368.62 738.503 368.394 738.729 368.259 739.18L365.213 748.52C365.123 748.791 365.146 749.039 365.281 749.265C365.461 749.445 365.687 749.535 365.958 749.535ZM386.145 760.567C385.423 760.567 384.814 760.364 384.318 759.958C383.821 759.507 383.573 758.966 383.573 758.334C383.573 757.657 383.821 757.003 384.318 756.371L394.199 746.557C394.515 746.242 394.673 745.971 394.673 745.745C394.673 745.474 394.357 745.339 393.726 745.339H386.213C385.581 745.339 385.04 745.159 384.589 744.798C384.182 744.392 383.979 743.895 383.979 743.309C383.979 742.677 384.182 742.181 384.589 741.82C385.04 741.459 385.581 741.278 386.213 741.278H398.463C399.23 741.278 399.884 741.504 400.426 741.955C400.967 742.406 401.238 742.993 401.238 743.715C401.238 744.572 400.855 745.384 400.088 746.151L390.951 755.153C390.635 755.469 390.477 755.739 390.477 755.965C390.477 756.236 390.793 756.371 391.424 756.371H399.817C400.448 756.371 400.99 756.574 401.441 756.98C401.937 757.386 402.186 757.905 402.186 758.537C402.186 759.124 401.96 759.62 401.509 760.026C401.058 760.387 400.516 760.567 399.884 760.567H386.145ZM414.972 761.244C411.588 761.244 408.948 760.274 407.053 758.334C405.158 756.394 404.211 753.777 404.211 750.483C404.211 747.595 405.158 745.226 407.053 743.376C408.994 741.526 411.475 740.601 414.498 740.601C417.431 740.601 419.777 741.459 421.537 743.173C423.297 744.843 424.177 746.918 424.177 749.4C424.177 750.393 423.906 751.137 423.365 751.633C422.868 752.13 422.214 752.378 421.402 752.378H409.625C409.174 752.378 409.016 752.626 409.152 753.122C409.512 754.386 410.234 755.378 411.317 756.1C412.445 756.777 413.709 757.116 415.107 757.116C416.145 757.116 417.138 756.98 418.085 756.71C419.078 756.439 419.935 756.033 420.657 755.491C420.883 755.311 421.176 755.221 421.537 755.221C422.033 755.221 422.485 755.446 422.891 755.897C423.297 756.303 423.5 756.8 423.5 757.386C423.5 757.657 423.455 757.928 423.365 758.199C423.274 758.469 423.071 758.74 422.755 759.011C421.582 759.868 420.319 760.455 418.965 760.77C417.657 761.086 416.326 761.244 414.972 761.244ZM418.898 748.859C419.168 748.859 419.304 748.723 419.304 748.452C419.304 747.415 418.83 746.512 417.882 745.745C416.98 744.978 415.852 744.595 414.498 744.595C413.325 744.595 412.197 744.91 411.114 745.542C410.076 746.174 409.445 747.009 409.219 748.046C409.219 748.046 409.219 748.069 409.219 748.114C409.174 748.295 409.152 748.452 409.152 748.588C409.197 748.723 409.4 748.791 409.761 748.791L418.898 748.859ZM428.912 761.244C428.325 761.244 427.784 761.019 427.287 760.567C426.791 760.071 426.543 759.53 426.543 758.943C426.543 758.402 426.746 757.928 427.152 757.522L432.973 751.43C433.198 751.115 433.311 750.866 433.311 750.686C433.311 750.415 433.198 750.167 432.973 749.941L427.49 744.256C427.175 743.895 427.017 743.467 427.017 742.97C427.017 742.339 427.287 741.797 427.829 741.346C428.37 740.85 428.934 740.601 429.521 740.601C429.792 740.601 430.062 740.669 430.333 740.804C430.649 740.895 430.92 741.098 431.145 741.414L435.612 746.76C435.928 747.076 436.176 747.234 436.357 747.234C436.627 747.234 436.876 747.076 437.101 746.76L441.568 741.414C441.794 741.098 442.042 740.895 442.313 740.804C442.628 740.669 442.922 740.601 443.192 740.601C443.824 740.601 444.388 740.85 444.884 741.346C445.381 741.842 445.629 742.406 445.629 743.038C445.629 743.534 445.471 743.963 445.155 744.324L439.808 749.941C439.628 750.122 439.538 750.37 439.538 750.686C439.538 750.957 439.628 751.205 439.808 751.43L445.561 757.522C445.967 757.928 446.17 758.402 446.17 758.943C446.17 759.53 445.922 760.071 445.426 760.567C444.93 761.019 444.388 761.244 443.802 761.244C443.215 761.244 442.696 761.019 442.245 760.567L437.101 754.544C436.921 754.228 436.673 754.07 436.357 754.07C436.131 754.07 435.883 754.228 435.612 754.544L430.468 760.567C430.017 761.019 429.498 761.244 428.912 761.244ZM458.39 761.244C456.405 761.244 454.6 760.793 452.976 759.891C451.396 758.988 450.156 757.747 449.253 756.168C448.351 754.544 447.899 752.739 447.899 750.754C447.899 748.813 448.351 747.076 449.253 745.542C450.156 744.008 451.396 742.812 452.976 741.955C454.6 741.053 456.405 740.601 458.39 740.601C460.375 740.601 462.158 741.053 463.737 741.955C465.316 742.812 466.557 744.008 467.459 745.542C468.407 747.076 468.881 748.813 468.881 750.754C468.881 752.739 468.407 754.544 467.459 756.168C466.557 757.747 465.316 758.988 463.737 759.891C462.158 760.793 460.375 761.244 458.39 761.244ZM458.39 757.048C460.15 757.048 461.571 756.484 462.654 755.356C463.737 754.183 464.278 752.649 464.278 750.754C464.278 748.949 463.737 747.505 462.654 746.422C461.571 745.339 460.15 744.798 458.39 744.798C456.585 744.798 455.141 745.339 454.058 746.422C453.021 747.505 452.502 748.949 452.502 750.754C452.502 752.649 453.021 754.183 454.058 755.356C455.141 756.484 456.585 757.048 458.39 757.048ZM471.358 770.381C470.456 770.381 469.666 770.268 468.99 770.043C467.997 769.682 467.501 769.005 467.501 768.012C467.501 767.2 467.794 766.614 468.38 766.253C468.922 765.892 469.441 765.801 469.937 765.982C470.163 766.027 470.366 766.05 470.546 766.05C470.727 766.095 470.907 766.117 471.088 766.117C471.855 766.117 472.464 765.869 472.915 765.373C473.366 764.876 473.592 764.064 473.592 762.936V742.7C473.592 742.023 473.84 741.504 474.336 741.143C474.833 740.782 475.329 740.601 475.825 740.601C476.412 740.601 476.931 740.804 477.382 741.211C477.878 741.572 478.127 742.068 478.127 742.7V763.072C478.127 765.418 477.45 767.223 476.096 768.486C474.788 769.749 473.208 770.381 471.358 770.381ZM476.028 736.879C475.171 736.879 474.427 736.608 473.795 736.067C473.208 735.48 472.915 734.781 472.915 733.969C472.915 733.202 473.208 732.547 473.795 732.006C474.427 731.419 475.171 731.126 476.028 731.126C476.841 731.126 477.54 731.419 478.127 732.006C478.713 732.547 479.006 733.202 479.006 733.969C479.006 734.781 478.713 735.48 478.127 736.067C477.54 736.608 476.841 736.879 476.028 736.879ZM492.485 761.244C490.545 761.244 488.808 760.793 487.274 759.891C485.74 758.988 484.544 757.747 483.687 756.168C482.83 754.544 482.401 752.739 482.401 750.754C482.401 748.813 482.83 747.076 483.687 745.542C484.544 744.008 485.74 742.812 487.274 741.955C488.808 741.053 490.545 740.601 492.485 740.601C493.749 740.601 494.877 740.827 495.87 741.278C496.862 741.684 497.719 742.226 498.441 742.903C498.532 742.271 498.802 741.797 499.254 741.481C499.705 741.12 500.201 740.94 500.743 740.94C501.329 740.94 501.848 741.143 502.299 741.549C502.796 741.91 503.044 742.474 503.044 743.241V759.146C503.044 759.823 502.796 760.342 502.299 760.703C501.848 761.064 501.329 761.244 500.743 761.244C500.156 761.244 499.615 761.064 499.118 760.703C498.667 760.342 498.441 759.823 498.441 759.146V758.875C497.719 759.597 496.862 760.161 495.87 760.567C494.877 761.019 493.749 761.244 492.485 761.244ZM492.892 757.048C494.606 757.048 495.96 756.484 496.952 755.356C497.945 754.183 498.441 752.649 498.441 750.754C498.441 748.949 497.945 747.505 496.952 746.422C495.96 745.339 494.606 744.798 492.892 744.798C491.132 744.798 489.711 745.339 488.628 746.422C487.545 747.505 487.003 748.949 487.003 750.754C487.003 752.649 487.545 754.183 488.628 755.356C489.711 756.484 491.132 757.048 492.892 757.048Z" fill="#2C2C2F"/>
</g>
<defs>
<filter id="filter0_ii_0_1" x="-1.35623" y="-1.33279" width="803.963" height="803.963" filterUnits="userSpaceOnUse" color-interpolation-filters="sRGB">
<feFlood flood-opacity="0" result="BackgroundImageFix"/>
<feBlend mode="normal" in="SourceGraphic" in2="BackgroundImageFix" result="shape"/>
<feColorMatrix in="SourceAlpha" type="matrix" values="0 0 0 0 0 0 0 0 0 0 0 0 0 0 0 0 0 0 127 0" result="hardAlpha"/>
<feOffset dx="-1.98172" dy="-1.98172"/>
<feGaussianBlur stdDeviation="0.990858"/>
<feComposite in2="hardAlpha" operator="arithmetic" k2="-1" k3="1"/>
<feColorMatrix type="matrix" values="0 0 0 0 0 0 0 0 0 0 0 0 0 0 0 0 0 0 0.25 0"/>
<feBlend mode="normal" in2="shape" result="effect1_innerShadow_0_1"/>
<feColorMatrix in="SourceAlpha" type="matrix" values="0 0 0 0 0 0 0 0 0 0 0 0 0 0 0 0 0 0 127 0" result="hardAlpha"/>
<feOffset dx="1.98172" dy="1.98172"/>
<feGaussianBlur stdDeviation="0.990858"/>
<feComposite in2="hardAlpha" operator="arithmetic" k2="-1" k3="1"/>
<feColorMatrix type="matrix" values="0 0 0 0 0.686275 0 0 0 0 0.682353 0 0 0 0 0.694118 0 0 0 1 0"/>
<feBlend mode="normal" in2="effect1_innerShadow_0_1" result="effect2_innerShadow_0_1"/>
</filter>
<filter id="filter1_ii_0_1" x="19.3219" y="19.3453" width="762.607" height="762.607" filterUnits="userSpaceOnUse" color-interpolation-filters="sRGB">
<feFlood flood-opacity="0" result="BackgroundImageFix"/>
<feBlend mode="normal" in="SourceGraphic" in2="BackgroundImageFix" result="shape"/>
<feColorMatrix in="SourceAlpha" type="matrix" values="0 0 0 0 0 0 0 0 0 0 0 0 0 0 0 0 0 0 127 0" result="hardAlpha"/>
<feOffset dx="-1.87977" dy="-1.87977"/>
<feGaussianBlur stdDeviation="4.95429"/>
<feComposite in2="hardAlpha" operator="arithmetic" k2="-1" k3="1"/>
<feColorMatrix type="matrix" values="0 0 0 0 0 0 0 0 0 0 0 0 0 0 0 0 0 0 1 0"/>
<feBlend mode="normal" in2="shape" result="effect1_innerShadow_0_1"/>
<feColorMatrix in="SourceAlpha" type="matrix" values="0 0 0 0 0 0 0 0 0 0 0 0 0 0 0 0 0 0 127 0" result="hardAlpha"/>
<feOffset dx="1.87977" dy="1.87977"/>
<feGaussianBlur stdDeviation="4.95429"/>
<feComposite in2="hardAlpha" operator="arithmetic" k2="-1" k3="1"/>
<feColorMatrix type="matrix" values="0 0 0 0 0 0 0 0 0 0 0 0 0 0 0 0 0 0 1 0"/>
<feBlend mode="normal" in2="effect1_innerShadow_0_1" result="effect2_innerShadow_0_1"/>
</filter>
<filter id="filter2_i_0_1" x="42.2739" y="177.16" width="717.942" height="41.6233" filterUnits="userSpaceOnUse" color-interpolation-filters="sRGB">
<feFlood flood-opacity="0" result="BackgroundImageFix"/>
<feBlend mode="normal" in="SourceGraphic" in2="BackgroundImageFix" result="shape"/>
<feColorMatrix in="SourceAlpha" type="matrix" values="0 0 0 0 0 0 0 0 0 0 0 0 0 0 0 0 0 0 127 0" result="hardAlpha"/>
<feOffset dy="1.98172"/>
<feGaussianBlur stdDeviation="0.990858"/>
<feComposite in2="hardAlpha" operator="arithmetic" k2="-1" k3="1"/>
<feColorMatrix type="matrix" values="0 0 0 0 0 0 0 0 0 0 0 0 0 0 0 0 0 0 0.25 0"/>
<feBlend mode="normal" in2="shape" result="effect1_innerShadow_0_1"/>
</filter>
<filter id="filter3_i_0_1" x="42.2739" y="583.754" width="717.942" height="41.6237" filterUnits="userSpaceOnUse" color-interpolation-filters="sRGB">
<feFlood flood-opacity="0" result="BackgroundImageFix"/>
<feBlend mode="normal" in="SourceGraphic" in2="BackgroundImageFix" result="shape"/>
<feColorMatrix in="SourceAlpha" type="matrix" values="0 0 0 0 0 0 0 0 0 0 0 0 0 0 0 0 0 0 127 0" result="hardAlpha"/>
<feOffset dy="-1.98172"/>
<feGaussianBlur stdDeviation="0.990858"/>
<feComposite in2="hardAlpha" operator="arithmetic" k2="-1" k3="1"/>
<feColorMatrix type="matrix" values="0 0 0 0 1 0 0 0 0 1 0 0 0 0 1 0 0 0 0.25 0"/>
<feBlend mode="normal" in2="shape" result="effect1_innerShadow_0_1"/>
</filter>
<filter id="filter4_i_0_1" x="52.1904" y="404.307" width="336.164" height="206.271" filterUnits="userSpaceOnUse" color-interpolation-filters="sRGB">
<feFlood flood-opacity="0" result="BackgroundImageFix"/>
<feBlend mode="normal" in="SourceGraphic" in2="BackgroundImageFix" result="shape"/>
<feColorMatrix in="SourceAlpha" type="matrix" values="0 0 0 0 0 0 0 0 0 0 0 0 0 0 0 0 0 0 127 0" result="hardAlpha"/>
<feOffset dy="1.976"/>
<feGaussianBlur stdDeviation="0.988002"/>
<feComposite in2="hardAlpha" operator="arithmetic" k2="-1" k3="1"/>
<feColorMatrix type="matrix" values="0 0 0 0 0.31205 0 0 0 0 0.307771 0 0 0 0 0.329167 0 0 0 1 0"/>
<feBlend mode="normal" in2="shape" result="effect1_innerShadow_0_1"/>
</filter>
<filter id="filter5_i_0_1" x="52.1904" y="193.027" width="336.164" height="206.267" filterUnits="userSpaceOnUse" color-interpolation-filters="sRGB">
<feFlood flood-opacity="0" result="BackgroundImageFix"/>
<feBlend mode="normal" in="SourceGraphic" in2="BackgroundImageFix" result="shape"/>
<feColorMatrix in="SourceAlpha" type="matrix" values="0 0 0 0 0 0 0 0 0 0 0 0 0 0 0 0 0 0 127 0" result="hardAlpha"/>
<feOffset dy="1.976"/>
<feGaussianBlur stdDeviation="0.988002"/>
<feComposite in2="hardAlpha" operator="arithmetic" k2="-1" k3="1"/>
<feColorMatrix type="matrix" values="0 0 0 0 0.31205 0 0 0 0 0.307771 0 0 0 0 0.329167 0 0 0 1 0"/>
<feBlend mode="normal" in2="shape" result="effect1_innerShadow_0_1"/>
</filter>
<filter id="filter6_i_0_1" x="414.136" y="405.219" width="336.164" height="206.269" filterUnits="userSpaceOnUse" color-interpolation-filters="sRGB">
<feFlood flood-opacity="0" result="BackgroundImageFix"/>
<feBlend mode="normal" in="SourceGraphic" in2="BackgroundImageFix" result="shape"/>
<feColorMatrix in="SourceAlpha" type="matrix" values="0 0 0 0 0 0 0 0 0 0 0 0 0 0 0 0 0 0 127 0" result="hardAlpha"/>
<feOffset dy="1.976"/>
<feGaussianBlur stdDeviation="0.988002"/>
<feComposite in2="hardAlpha" operator="arithmetic" k2="-1" k3="1"/>
<feColorMatrix type="matrix" values="0 0 0 0 0.31205 0 0 0 0 0.307771 0 0 0 0 0.329167 0 0 0 1 0"/>
<feBlend mode="normal" in2="shape" result="effect1_innerShadow_0_1"/>
</filter>
<filter id="filter7_i_0_1" x="414.136" y="193.027" width="336.164" height="206.269" filterUnits="userSpaceOnUse" color-interpolation-filters="sRGB">
<feFlood flood-opacity="0" result="BackgroundImageFix"/>
<feBlend mode="normal" in="SourceGraphic" in2="BackgroundImageFix" result="shape"/>
<feColorMatrix in="SourceAlpha" type="matrix" values="0 0 0 0 0 0 0 0 0 0 0 0 0 0 0 0 0 0 127 0" result="hardAlpha"/>
<feOffset dy="1.976"/>
<feGaussianBlur stdDeviation="0.988002"/>
<feComposite in2="hardAlpha" operator="arithmetic" k2="-1" k3="1"/>
<feColorMatrix type="matrix" values="0 0 0 0 0.31205 0 0 0 0 0.307771 0 0 0 0 0.329167 0 0 0 1 0"/>
<feBlend mode="normal" in2="shape" result="effect1_innerShadow_0_1"/>
</filter>
<filter id="filter8_f_0_1" x="58.143" y="391.356" width="688.187" height="21.8097" filterUnits="userSpaceOnUse" color-interpolation-filters="sRGB">
<feFlood flood-opacity="0" result="BackgroundImageFix"/>
<feBlend mode="normal" in="SourceGraphic" in2="BackgroundImageFix" result="shape"/>
<feGaussianBlur stdDeviation="1.98172" result="effect1_foregroundBlur_0_1"/>
</filter>
<filter id="filter9_di_0_1" x="298.595" y="731.126" width="204.748" height="40.1253" filterUnits="userSpaceOnUse" color-interpolation-filters="sRGB">
<feFlood flood-opacity="0" result="BackgroundImageFix"/>
<feColorMatrix in="SourceAlpha" type="matrix" values="0 0 0 0 0 0 0 0 0 0 0 0 0 0 0 0 0 0 127 0" result="hardAlpha"/>
<feOffset dy="0.3"/>
<feGaussianBlur stdDeviation="0.15"/>
<feComposite in2="hardAlpha" operator="out"/>
<feColorMatrix type="matrix" values="0 0 0 0 0.7375 0 0 0 0 0.7375 0 0 0 0 0.7375 0 0 0 1 0"/>
<feBlend mode="normal" in2="BackgroundImageFix" result="effect1_dropShadow_0_1"/>
<feBlend mode="normal" in="SourceGraphic" in2="effect1_dropShadow_0_1" result="shape"/>
<feColorMatrix in="SourceAlpha" type="matrix" values="0 0 0 0 0 0 0 0 0 0 0 0 0 0 0 0 0 0 127 0" result="hardAlpha"/>
<feOffset dy="0.870186"/>
<feGaussianBlur stdDeviation="0.870186"/>
<feComposite in2="hardAlpha" operator="arithmetic" k2="-1" k3="1"/>
<feColorMatrix type="matrix" values="0 0 0 0 0 0 0 0 0 0 0 0 0 0 0 0 0 0 1 0"/>
<feBlend mode="normal" in2="shape" result="effect2_innerShadow_0_1"/>
</filter>
<linearGradient id="paint0_linear_0_1" x1="0.625488" y1="0.648926" x2="799.882" y2="799.905" gradientUnits="userSpaceOnUse">
<stop stop-color="#89898B"/>
<stop offset="1" stop-color="#616161"/>
</linearGradient>
<linearGradient id="paint1_linear_0_1" x1="21.2017" y1="21.2251" x2="779.343" y2="779.367" gradientUnits="userSpaceOnUse">
<stop stop-color="#404145"/>
<stop offset="1" stop-color="#252527"/>
</linearGradient>
<linearGradient id="paint2_linear_0_1" x1="42.2739" y1="177.16" x2="783.024" y2="625.378" gradientUnits="userSpaceOnUse">
<stop stop-color="#161618"/>
<stop offset="1" stop-color="#161618"/>
</linearGradient>
<linearGradient id="paint3_linear_0_1" x1="377.446" y1="155.357" x2="378.436" y2="185.088" gradientUnits="userSpaceOnUse">
<stop stop-color="#29292C"/>
<stop offset="1" stop-color="#36353A"/>
</linearGradient>
<linearGradient id="paint4_linear_0_1" x1="377.446" y1="647.181" x2="378.436" y2="617.449" gradientUnits="userSpaceOnUse">
<stop stop-color="#29292C"/>
<stop offset="1" stop-color="#404145"/>
</linearGradient>
<linearGradient id="paint5_linear_0_1" x1="220.273" y1="401.267" x2="220.273" y2="608.601" gradientUnits="userSpaceOnUse">
<stop stop-color="#393A3E"/>
<stop offset="1" stop-color="#3E4245"/>
</linearGradient>
<linearGradient id="paint6_linear_0_1" x1="220.273" y1="400.358" x2="220.273" y2="193.027" gradientUnits="userSpaceOnUse">
<stop stop-color="#313035"/>
<stop offset="1" stop-color="#36383C"/>
</linearGradient>
<linearGradient id="paint7_linear_0_1" x1="582.218" y1="402.179" x2="582.218" y2="609.512" gradientUnits="userSpaceOnUse">
<stop stop-color="#393A3E"/>
<stop offset="1" stop-color="#3E4245"/>
</linearGradient>
<linearGradient id="paint8_linear_0_1" x1="582.218" y1="400.36" x2="582.218" y2="193.028" gradientUnits="userSpaceOnUse">
<stop stop-color="#313035"/>
<stop offset="1" stop-color="#36383C"/>
</linearGradient>
<linearGradient id="paint9_linear_0_1" x1="64.0898" y1="345.737" x2="64.0898" y2="401.269" gradientUnits="userSpaceOnUse">
<stop stop-opacity="0"/>
<stop offset="1" stop-color="white" stop-opacity="0.78"/>
</linearGradient>
<linearGradient id="paint10_linear_0_1" x1="375.462" y1="345.737" x2="375.462" y2="401.269" gradientUnits="userSpaceOnUse">
<stop stop-opacity="0"/>
<stop offset="1" stop-color="white" stop-opacity="0.78"/>
</linearGradient>
<linearGradient id="paint11_linear_0_1" x1="427.028" y1="345.737" x2="427.028" y2="401.269" gradientUnits="userSpaceOnUse">
<stop stop-opacity="0"/>
<stop offset="1" stop-color="white" stop-opacity="0.78"/>
</linearGradient>
<linearGradient id="paint12_linear_0_1" x1="738.4" y1="345.737" x2="738.4" y2="401.269" gradientUnits="userSpaceOnUse">
<stop stop-opacity="0"/>
<stop offset="1" stop-color="white" stop-opacity="0.78"/>
</linearGradient>
<linearGradient id="paint13_linear_0_1" x1="64.0898" y1="405.235" x2="64.0898" y2="456.8" gradientUnits="userSpaceOnUse">
<stop stop-opacity="0"/>
<stop offset="0.526613" stop-color="white" stop-opacity="0.31"/>
<stop offset="1" stop-color="white" stop-opacity="0"/>
</linearGradient>
<linearGradient id="paint14_linear_0_1" x1="375.462" y1="405.235" x2="375.462" y2="456.8" gradientUnits="userSpaceOnUse">
<stop stop-opacity="0"/>
<stop offset="0.526613" stop-color="white" stop-opacity="0.31"/>
<stop offset="1" stop-color="white" stop-opacity="0"/>
</linearGradient>
<linearGradient id="paint15_linear_0_1" x1="427.028" y1="405.235" x2="427.028" y2="456.8" gradientUnits="userSpaceOnUse">
<stop stop-opacity="0"/>
<stop offset="0.526613" stop-color="white" stop-opacity="0.31"/>
<stop offset="1" stop-color="white" stop-opacity="0"/>
</linearGradient>
<linearGradient id="paint16_linear_0_1" x1="738.4" y1="405.235" x2="738.4" y2="456.8" gradientUnits="userSpaceOnUse">
<stop stop-opacity="0"/>
<stop offset="0.526613" stop-color="white" stop-opacity="0.31"/>
<stop offset="1" stop-color="white" stop-opacity="0"/>
</linearGradient>
</defs>
</svg>
